# xmcd
# 
# Track frame offsets:
#     150
#     75800
#     113219
#     190439
# 
# Disc length: 3002
# 
# Revision: 0
# Processed by: cddbd v1.5.2PL0 Copyright (c) Steve Scherf et al.
# Submitted via: fre:ac v1.0.17
# 
DISCID=260bb804
DTITLE=Various Artist - A selection of Korean Classical Music Vol. 16-I
DYEAR=0
DGENRE=Asia
TTITLE0=Various Artist - Paekgu-sa
TTITLE1=Various Artist - Yangyang-ga
TTITLE2=Various Artist - Kil kunak
TTITLE3=Various Artist - Maehwa-ga
EXTD=
EXTT0=
EXTT1=
EXTT2=
EXTT3=
PLAYORDER=
